<svg width="120" height="25" viewBox="0 0 120 25" fill="none" xmlns="http://www.w3.org/2000/svg">
<g clip-path="url(#clip0_8956_234)">
<path d="M119.787 18.562V21.5316H117.296C114.638 21.4481 113.218 20.0127 113.218 17.3165V10.5342H111.479V7.92911H113.218V5.01266H116.894V7.89873H119.704V10.4962H116.894V16.9519C116.894 17.8253 117.068 18.524 118.413 18.524L119.787 18.562Z" fill="#232536"/>
<path d="M96.8278 14.757V14.5595C96.788 13.686 96.9211 12.8132 97.2192 11.9912C97.5174 11.1691 97.9749 10.4141 98.5655 9.76917C99.156 9.12429 99.868 8.60229 100.661 8.2331C101.453 7.86392 102.311 7.65479 103.185 7.61772C103.359 7.61772 103.542 7.61772 103.716 7.61772C107.187 7.61772 110.233 9.63797 110.233 14.4532V15.4785H100.587C100.686 17.6962 101.886 18.9494 103.906 18.9494C105.646 18.9494 106.458 18.1899 106.694 17.081H110.165C109.739 19.9747 107.43 21.5848 103.777 21.5848C99.767 21.5544 96.8278 19.0177 96.8278 14.757ZM106.618 13.1544C106.489 11.1342 105.471 10.162 103.701 10.162C101.932 10.162 100.914 11.2557 100.663 13.1544H106.618Z" fill="#232536"/>
<path d="M81.8203 14.757V14.5595C81.7805 13.6872 81.913 12.8156 82.2102 11.9945C82.5074 11.1735 82.9636 10.419 83.5525 9.77435C84.1415 9.12967 84.8517 8.60737 85.6427 8.23733C86.4336 7.86728 87.2897 7.65673 88.162 7.61772C88.3367 7.61772 88.519 7.61772 88.6937 7.61772C92.1646 7.61772 95.2177 9.63797 95.2177 14.4532V15.4785H85.5797C85.6785 17.6962 86.8785 18.9494 88.8987 18.9494C90.638 18.9494 91.4506 18.1899 91.6861 17.081H95.157C94.7241 19.9747 92.4152 21.5848 88.762 21.5848C84.7595 21.5544 81.8203 19.0177 81.8203 14.757ZM91.6101 13.1544C91.481 11.1342 90.4633 10.162 88.6937 10.162C86.9241 10.162 85.9367 11.2861 85.6557 13.1468L91.6101 13.1544Z" fill="#232536"/>
<path d="M60.7595 7.89874H64.6481L67.0253 16.9063L69.6304 7.89874H72.6684L75.0228 16.9063L77.5291 7.89874H81.0912L76.8684 21.281H73.2228L70.9443 12.881L68.5064 21.281H64.8152L60.7595 7.89874Z" fill="#232536"/>
<path d="M48.4026 17.0734H51.8735C52.033 18.281 52.633 18.9722 54.2279 18.9722C55.6558 18.9722 56.3165 18.4329 56.3165 17.5139C56.3165 16.5949 55.557 16.2076 53.6127 15.9342C50.0507 15.3949 48.676 14.3696 48.676 11.757C48.676 8.96962 51.2279 7.58734 53.9925 7.58734C56.9621 7.58734 59.2026 8.66582 59.5216 11.7418H56.0963C56.0744 11.504 56.0056 11.2729 55.894 11.0618C55.7823 10.8507 55.6299 10.6639 55.4455 10.5121C55.2612 10.3602 55.0487 10.2464 54.8201 10.1772C54.5916 10.108 54.3516 10.0848 54.114 10.1089H54.0001C52.8001 10.1089 52.1013 10.6709 52.1013 11.4911C52.1013 12.3114 52.7469 12.6684 54.7064 12.9494C58.033 13.4506 59.8937 14.2937 59.8937 17.157C59.8937 20.0203 57.7899 21.5544 54.2659 21.5544C50.7418 21.5544 48.5013 19.9671 48.4026 17.0734Z" fill="#232536"/>
<path d="M33.6532 7.89873H37.3291V10.0177C37.7435 9.23995 38.3724 8.59748 39.1411 8.16666C39.9099 7.73583 40.7862 7.53476 41.6659 7.58734C44.2709 7.58734 46.1621 9.17468 46.1621 12.7975V21.3114H42.5317V13.3291C42.5317 11.5139 41.8253 10.6481 40.1848 10.6481C39.8381 10.6179 39.4888 10.6565 39.157 10.7617C38.8253 10.8668 38.5175 11.0365 38.2515 11.2609C37.9854 11.4853 37.7663 11.76 37.6067 12.0693C37.4472 12.3786 37.3502 12.7164 37.3216 13.0633C37.3026 13.2248 37.3026 13.3879 37.3216 13.5494V21.281H33.6532V7.89873Z" fill="#232536"/>
<path d="M26.5595 4.53418C26.5461 4.16767 26.6419 3.80545 26.8345 3.49338C27.0272 3.18131 27.3081 2.93342 27.6417 2.78109C27.9753 2.62877 28.3466 2.57886 28.7086 2.63769C29.0706 2.69652 29.407 2.86143 29.6753 3.11156C29.9435 3.36168 30.1315 3.68577 30.2154 4.04279C30.2993 4.3998 30.2754 4.77369 30.1467 5.11712C30.018 5.46055 29.7903 5.75807 29.4925 5.97202C29.1946 6.18597 28.8399 6.30672 28.4734 6.31899H28.405C28.1775 6.33339 27.9494 6.30273 27.7338 6.22877C27.5182 6.15481 27.3193 6.03901 27.1485 5.888C26.9778 5.737 26.8385 5.55376 26.7387 5.34881C26.6389 5.14386 26.5806 4.92122 26.567 4.69367C26.5607 4.64075 26.5582 4.58745 26.5595 4.53418ZM26.5595 7.89873H30.2734V21.281H26.5746L26.5595 7.89873Z" fill="#232536"/>
<path d="M12.562 2.99241H24.3038V6.23545H16.7088V11.0734H22.724V14.1949H16.7013V21.281H12.562V2.99241Z" fill="#232536"/>
<path d="M5.47595 8.97721C5.47595 10.1241 5.47595 11.5215 3.8962 12.0911C5.51393 12.6456 5.47595 13.8228 5.47595 15.0532V19.6101C5.47595 20.4759 5.82532 21 6.4481 21.1291C6.58495 21.1753 6.72912 21.1959 6.87342 21.1899H8.39241V24.2278H5.88608C3.21266 24.2278 1.73924 22.7089 1.73924 19.8911V14.4987C1.72028 14.2219 1.59821 13.9622 1.39714 13.771C1.19607 13.5798 0.930606 13.4709 0.653165 13.4658H0V10.8H0.653165C0.936141 10.7963 1.20682 10.6837 1.40904 10.4858C1.61126 10.2878 1.72951 10.0195 1.73924 9.73671V4.26835C1.73924 1.4962 3.18228 0 5.88608 0H8.41519V2.9924H6.8962C6.75173 2.99282 6.60822 3.01589 6.47089 3.06076C5.8481 3.22025 5.49873 3.73671 5.49873 4.57975L5.47595 8.97721Z" fill="#232536"/>
</g>
<defs>
<clipPath id="clip0_8956_234">
<rect width="120" height="24.3038" fill="white"/>
</clipPath>
</defs>
</svg>
